<mxfile host="app.diagrams.net" modified="2020-12-05T02:29:24.334Z" agent="5.0 (Macintosh; Intel Mac OS X 10_14_6) AppleWebKit/537.36 (KHTML, like Gecko) Chrome/86.0.4240.111 Safari/537.36" etag="Nubojllq2LaGoHDW2Amw" version="13.10.8" type="github">
  <diagram id="C5RBs43oDa-KdzZeNtuy" name="Page-1">
    <mxGraphModel dx="1431" dy="773" grid="1" gridSize="10" guides="1" tooltips="1" connect="1" arrows="1" fold="1" page="1" pageScale="1" pageWidth="827" pageHeight="1169" math="0" shadow="0">
      <root>
        <mxCell id="WIyWlLk6GJQsqaUBKTNV-0" />
        <mxCell id="WIyWlLk6GJQsqaUBKTNV-1" parent="WIyWlLk6GJQsqaUBKTNV-0" />
        <mxCell id="bRf2GtXqzJCqDmtRkKyZ-1" value="2. Mountain Path" style="edgeStyle=orthogonalEdgeStyle;rounded=0;orthogonalLoop=1;jettySize=auto;html=1;exitX=0.5;exitY=1;exitDx=0;exitDy=0;entryX=0.5;entryY=0;entryDx=0;entryDy=0;" edge="1" parent="WIyWlLk6GJQsqaUBKTNV-1" source="WIyWlLk6GJQsqaUBKTNV-3" target="bRf2GtXqzJCqDmtRkKyZ-0">
          <mxGeometry relative="1" as="geometry" />
        </mxCell>
        <mxCell id="bRf2GtXqzJCqDmtRkKyZ-3" value="1. Ship" style="edgeStyle=orthogonalEdgeStyle;rounded=0;orthogonalLoop=1;jettySize=auto;html=1;exitX=1;exitY=0.5;exitDx=0;exitDy=0;" edge="1" parent="WIyWlLk6GJQsqaUBKTNV-1" source="WIyWlLk6GJQsqaUBKTNV-3" target="bRf2GtXqzJCqDmtRkKyZ-2">
          <mxGeometry relative="1" as="geometry" />
        </mxCell>
        <mxCell id="WIyWlLk6GJQsqaUBKTNV-3" value="Welcome to this adventure game!&lt;br&gt;&lt;br&gt;You are about to begin your quest to find the lost artifacts of the fabled city of Pharucia. Shall you take the ship or the mountain path?&lt;br&gt;&lt;br&gt;1. Ship&lt;br&gt;2. Mountain Path" style="rounded=1;whiteSpace=wrap;html=1;fontSize=12;glass=0;strokeWidth=1;shadow=0;" parent="WIyWlLk6GJQsqaUBKTNV-1" vertex="1">
          <mxGeometry x="160" y="80" width="250" height="130" as="geometry" />
        </mxCell>
        <mxCell id="bRf2GtXqzJCqDmtRkKyZ-11" style="edgeStyle=orthogonalEdgeStyle;rounded=0;orthogonalLoop=1;jettySize=auto;html=1;exitX=0.5;exitY=1;exitDx=0;exitDy=0;" edge="1" parent="WIyWlLk6GJQsqaUBKTNV-1" source="bRf2GtXqzJCqDmtRkKyZ-0" target="bRf2GtXqzJCqDmtRkKyZ-10">
          <mxGeometry relative="1" as="geometry" />
        </mxCell>
        <mxCell id="bRf2GtXqzJCqDmtRkKyZ-0" value="You&#39;ve embarked on foot towards the mountain.&lt;br&gt;There are many miles and many lands ahead before you reach your destination.&lt;br&gt;Prepare for unstable footing, freezing temperatures and mysteries to be solved.&lt;br&gt;&lt;br&gt;Press space to continue..." style="rounded=1;whiteSpace=wrap;html=1;" vertex="1" parent="WIyWlLk6GJQsqaUBKTNV-1">
          <mxGeometry x="160" y="300" width="260" height="120" as="geometry" />
        </mxCell>
        <mxCell id="bRf2GtXqzJCqDmtRkKyZ-5" style="edgeStyle=orthogonalEdgeStyle;rounded=0;orthogonalLoop=1;jettySize=auto;html=1;exitX=1;exitY=0.5;exitDx=0;exitDy=0;entryX=0;entryY=0.5;entryDx=0;entryDy=0;" edge="1" parent="WIyWlLk6GJQsqaUBKTNV-1" source="bRf2GtXqzJCqDmtRkKyZ-2" target="bRf2GtXqzJCqDmtRkKyZ-4">
          <mxGeometry relative="1" as="geometry" />
        </mxCell>
        <mxCell id="bRf2GtXqzJCqDmtRkKyZ-2" value="You&#39;ve set sail.&lt;br&gt;There are many miles and many lands ahead before you reach your destination.&lt;br&gt;Prepare for turbulent waters, ferocious sea monsters and mysteries to be solved.&lt;br&gt;&lt;br&gt;Press space to continue..." style="rounded=1;whiteSpace=wrap;html=1;" vertex="1" parent="WIyWlLk6GJQsqaUBKTNV-1">
          <mxGeometry x="520" y="80" width="230" height="130" as="geometry" />
        </mxCell>
        <mxCell id="bRf2GtXqzJCqDmtRkKyZ-7" value="2. Keep going" style="edgeStyle=orthogonalEdgeStyle;rounded=0;orthogonalLoop=1;jettySize=auto;html=1;exitX=0.5;exitY=1;exitDx=0;exitDy=0;entryX=0.5;entryY=0;entryDx=0;entryDy=0;" edge="1" parent="WIyWlLk6GJQsqaUBKTNV-1" source="bRf2GtXqzJCqDmtRkKyZ-4" target="bRf2GtXqzJCqDmtRkKyZ-6">
          <mxGeometry relative="1" as="geometry" />
        </mxCell>
        <mxCell id="bRf2GtXqzJCqDmtRkKyZ-9" value="1. Stop for supplies" style="edgeStyle=orthogonalEdgeStyle;rounded=0;orthogonalLoop=1;jettySize=auto;html=1;exitX=1;exitY=0.5;exitDx=0;exitDy=0;entryX=0;entryY=0.5;entryDx=0;entryDy=0;" edge="1" parent="WIyWlLk6GJQsqaUBKTNV-1" source="bRf2GtXqzJCqDmtRkKyZ-4" target="bRf2GtXqzJCqDmtRkKyZ-8">
          <mxGeometry relative="1" as="geometry" />
        </mxCell>
        <mxCell id="bRf2GtXqzJCqDmtRkKyZ-4" value="You&#39;ve come to a port!&lt;br&gt;&lt;br&gt;1. Stop for supplies&lt;br&gt;2. Keep going" style="rounded=1;whiteSpace=wrap;html=1;" vertex="1" parent="WIyWlLk6GJQsqaUBKTNV-1">
          <mxGeometry x="840" y="80" width="250" height="130" as="geometry" />
        </mxCell>
        <mxCell id="bRf2GtXqzJCqDmtRkKyZ-6" value="" style="rounded=1;whiteSpace=wrap;html=1;" vertex="1" parent="WIyWlLk6GJQsqaUBKTNV-1">
          <mxGeometry x="840" y="290" width="250" height="130" as="geometry" />
        </mxCell>
        <mxCell id="bRf2GtXqzJCqDmtRkKyZ-8" value="" style="rounded=1;whiteSpace=wrap;html=1;" vertex="1" parent="WIyWlLk6GJQsqaUBKTNV-1">
          <mxGeometry x="1241" y="80" width="250" height="130" as="geometry" />
        </mxCell>
        <mxCell id="bRf2GtXqzJCqDmtRkKyZ-10" value="You&#39;ve come to a small village!&lt;br&gt;&lt;br&gt;1. Stop for supplies&lt;br&gt;2. Keep Going" style="rounded=1;whiteSpace=wrap;html=1;" vertex="1" parent="WIyWlLk6GJQsqaUBKTNV-1">
          <mxGeometry x="160" y="510" width="250" height="130" as="geometry" />
        </mxCell>
      </root>
    </mxGraphModel>
  </diagram>
</mxfile>
